<svg xmlns="http://www.w3.org/2000/svg" width="375" height="220" fill="none" fill-rule="evenodd"><path fill="#fbfbfb" d="M0 0h375v220H0z"/><g fill="#3f3d56" fill-rule="nonzero"><ellipse cx="188" cy="176.874" rx="90" ry="4.549"/><ellipse cx="176.341" cy="189.137" rx="35.217" ry="1.78"/></g><path d="M125.616 42v133.714H240.54V42H125.616zm6.132 122.637a1.98 1.98 0 0 1-1.978-1.978 1.98 1.98 0 0 1 1.978-1.978 1.98 1.98 0 0 1 1.978 1.978 1.98 1.98 0 0 1-1.978 1.978zm0-9.692a1.98 1.98 0 0 1-1.978-1.978 1.98 1.98 0 0 1 1.978-1.978 1.98 1.98 0 0 1 1.978 1.978 1.98 1.98 0 0 1-1.978 1.978zm0-9.495a1.98 1.98 0 0 1-1.978-1.978 1.98 1.98 0 0 1 1.978-1.978 1.98 1.98 0 0 1 1.978 1.978 1.98 1.98 0 0 1-1.978 1.978zm0-9.692a1.98 1.98 0 0 1-1.978-1.978 1.98 1.98 0 0 1 1.978-1.978 1.98 1.98 0 0 1 1.978 1.978 1.98 1.98 0 0 1-1.978 1.978zm0-9.692a1.98 1.98 0 0 1-1.978-1.978 1.98 1.98 0 0 1 1.978-1.978 1.98 1.98 0 0 1 1.978 1.978 1.98 1.98 0 0 1-1.978 1.978zm0-9.495a1.98 1.98 0 0 1-1.978-1.978 1.98 1.98 0 0 1 1.978-1.978 1.98 1.98 0 0 1 1.978 1.978 1.98 1.98 0 0 1-1.978 1.978zm0-9.692a1.98 1.98 0 0 1-1.978-1.978 1.98 1.98 0 0 1 1.978-1.978 1.98 1.98 0 0 1 1.978 1.978 1.98 1.98 0 0 1-1.978 1.978zm0-9.692a1.98 1.98 0 0 1-1.978-1.978 1.98 1.98 0 0 1 1.978-1.978 1.98 1.98 0 0 1 1.978 1.978 1.98 1.98 0 0 1-1.978 1.978zm0-9.495a1.98 1.98 0 0 1-1.978-1.978 1.98 1.98 0 0 1 1.978-1.978 1.98 1.98 0 0 1 1.978 1.978 1.98 1.98 0 0 1-1.978 1.978zm0-9.692a1.98 1.98 0 0 1-1.978-1.978 1.98 1.98 0 0 1 1.978-1.978 1.98 1.98 0 0 1 1.978 1.978A1.98 1.98 0 0 1 131.748 78zm0-9.692a1.98 1.98 0 0 1-1.978-1.978 1.98 1.98 0 0 1 1.978-1.978 1.98 1.98 0 0 1 1.978 1.978 1.98 1.98 0 0 1-1.978 1.978zm0-9.297a1.98 1.98 0 0 1-1.978-1.978 1.98 1.98 0 0 1 1.978-1.978 1.98 1.98 0 0 1 1.978 1.978 1.98 1.98 0 0 1-1.978 1.978z" fill="#f2f2f2" fill-rule="nonzero"/><path fill="#3f3d56" fill-rule="nonzero" opacity=".3" d="M240.54 52.155v-.396H139.216V42h-.396v9.76h-13.204v.396h13.204v9.23h-13.204v.396h13.204V71h-13.204v.396h13.204v9.23h-13.204v.396h13.204v9.23h-13.204v.396h13.204v9.23h-13.204v.396h13.204v9.23h-13.204v.396h13.204v9.23h-13.204v.396h13.204v9.23h-13.204v.396h13.204v9.23h-13.204v.396h13.204v9.23h-13.204v.396h13.204v9.23h-13.204v.396h13.204v9.23h-13.204v.396h13.204v8.055h.396v-8.055H240.54v-.396H139.216v-9.23H240.54v-.396H139.216v-9.23H240.54v-.396H139.216v-9.23H240.54v-.396H139.216v-9.23H240.54v-.396H139.216v-9.23H240.54v-.396H139.216v-9.23H240.54v-.396H139.216v-9.23H240.54v-.396H139.216v-9.23H240.54v-.396H139.216v-9.23H240.54v-.396H139.216v-9.23H240.54V71H139.216v-9.23H240.54v-.396H139.216v-9.23z"/><path d="M151.288 76.255a22.85 22.85 0 0 1-3.833 2.403c-.875.434-1.846.82-2.806.64s-1.82-1.163-1.528-2.095c.207-.554.693-.955 1.276-1.053a2.93 2.93 0 0 1 1.693.244 4.87 4.87 0 0 1 2.298 2.039c.268.467.478 1.002.924 1.305a2.63 2.63 0 0 0 1.173.34c.97.12 1.965.24 2.916.012s1.86-.887 2.103-1.834m3.116-6.514l-.122 8.715 2.06-.4c.76-.144 1.624-.363 1.968-1.056.32-.646.015-1.46-.518-1.947s-1.243-.717-1.93-.936l-1.125-.358m10.777-.825c-.753-.104-1.52-.204-2.27-.07s-1.486.54-1.83 1.218c-.637 1.25.34 2.8 1.576 3.455 1.03.548 2.216.727 3.36.506" stroke="#3f3d56" stroke-width=".5"/><g fill-rule="nonzero"><path d="M153.18 64.995c-1.893 1.78-3.786 1.78-5.68 0a7.81 7.81 0 0 1-2.402-5.704V42h10.484v17.3a7.81 7.81 0 0 1-2.402 5.704zm58.618 61.413c0 16.186-9.62 21.837-21.5 21.837-.275 0-.55-.004-.823-.01a33.98 33.98 0 0 1-1.634-.075c-10.713-.758-19.035-6.7-19.035-21.752 0-15.575 19.903-35.23 21.402-36.688l.1-.087s21.5 20.6 21.5 36.775z" fill="#f26522"/><path d="M189.524 145.77l7.86-10.982-7.88 12.19-.02 1.26-1.634-.075.855-16.34.08-1.53-7.9-12.218 7.924 11.07.02.324.64-12.234-6.763-12.626 6.846 10.48.67-25.453v.085l-.11 20.002 6.733-7.93-6.76 9.653-.178 10.954 6.288-10.513-6.314 12.125-.1 6.1 9.125-14.633-9.16 16.758-.22 13.545z" fill="#3f3d56"/></g></svg>